<svg width="196" height="30" viewBox="0 0 196 30" fill="none" xmlns="http://www.w3.org/2000/svg">
<path d="M47.1707 17.1817C45.5497 17.6684 43.9696 18.101 42.4212 18.6259C41.8052 18.8357 41.4095 18.7301 40.9096 18.3331C35.5217 14.0637 30.1114 9.82326 24.7076 5.5736C24.333 5.27816 23.9585 5.03283 23.4493 5.24122C22.6844 5.55513 22.5749 6.29375 23.2475 6.83188C24.8092 8.07829 26.3853 9.30755 27.9562 10.5421C32.0489 13.759 36.1443 16.972 40.2264 20.2008C40.415 20.3498 40.6472 20.6664 40.6076 20.851C40.204 22.7107 39.7476 24.5599 39.2794 26.5278C38.827 26.1374 38.4511 25.8156 38.0792 25.4911C32.2797 20.4435 26.4829 15.3932 20.6782 10.3522C19.747 9.54365 19.7312 9.56343 20.1322 8.38165C20.6387 6.8886 21.1504 5.39554 21.6424 3.89853C21.765 3.52659 21.9563 3.35512 22.3652 3.27335C24.3845 2.87107 26.3932 2.40944 28.4112 2.00056C28.6473 1.95308 28.9889 2.01507 29.1683 2.16279C35.1287 7.08776 41.0745 12.0299 47.0217 16.9693C47.0533 16.9957 47.0718 17.0393 47.1707 17.1817Z" fill="#FFC727"/>
<path d="M31.9975 22.6457C25.9093 24.2997 19.9792 25.9115 13.9648 27.5456C13.8329 26.3467 13.7063 25.2414 13.5889 24.1348C13.461 22.9359 13.3502 21.7343 13.2117 20.5354C13.1708 20.1819 13.2117 19.9946 13.6219 19.8839C17.3427 18.8801 21.0542 17.8434 24.7723 16.8318C24.957 16.7817 25.2445 16.7883 25.3724 16.8977C27.5513 18.7667 29.7131 20.6568 31.9975 22.6457Z" fill="#FFC727"/>
<path d="M12.107 28.2156C10.6284 27.5877 9.28046 27.0153 7.9325 26.4429C6.09651 25.6634 4.26053 24.8839 2.42455 24.1044C2.16604 23.9949 1.86664 23.9303 1.9893 23.5148C2.59602 21.4599 3.19218 19.4023 3.80681 17.292C6.21522 18.1269 8.57219 18.9367 10.9199 19.7703C11.0808 19.827 11.2694 20.0565 11.2879 20.2227C11.5715 22.8369 11.83 25.4523 12.1083 28.2142L12.107 28.2156Z" fill="#FFC727"/>
<path d="M40.9297 27.8365C41.1038 27.1005 41.2476 26.4911 41.394 25.8818C41.7883 24.2436 42.1721 22.6016 42.5955 20.97C42.6536 20.7458 42.8804 20.4622 43.0875 20.3976C45.0488 19.7856 47.0232 19.2145 49.0755 18.6064C49.8221 20.7629 50.562 22.9023 51.3336 25.1273C47.8898 26.0242 44.4909 26.9092 40.931 27.8365H40.9297Z" fill="#FFC727"/>
<path d="M7.25801 16.3361C8.98057 15.8415 10.7031 15.3456 12.4257 14.8523C14.8908 14.1453 17.3585 13.4489 19.8184 12.7261C20.2207 12.6088 20.5095 12.647 20.8274 12.9345C21.6531 13.6811 22.5091 14.3946 23.4508 15.2045C22.0118 15.6067 20.6955 15.9826 19.3752 16.344C17.199 16.9415 15.0227 17.5403 12.8385 18.1088C12.5457 18.1853 12.1869 18.1642 11.8994 18.0692C10.3404 17.5548 8.79327 17.0035 7.24219 16.4641C7.24746 16.4218 7.25274 16.3783 7.25933 16.3361H7.25801Z" fill="#FFC727"/>
<path d="M18.5604 11.1203C17.6569 10.1891 17.7875 9.25262 18.1607 8.23571C18.7951 6.50788 19.3597 4.75499 19.94 3.0087C20.2222 2.15798 20.792 1.66073 21.6639 1.47476C23.8731 1.00653 26.0797 0.529072 28.2863 0.0529302C29.1107 -0.125128 29.7754 0.161085 30.4032 0.686028C33.3339 3.13928 36.2792 5.5767 39.2191 8.01808C42.6326 10.8525 46.0038 13.7384 49.4872 16.4844C50.4012 17.2059 50.9169 17.9986 51.2559 19.0419C51.8441 20.8554 52.4957 22.6479 53.1116 24.4522C53.5429 25.7171 53.0839 26.6219 51.7848 26.9648C48.2684 27.8934 44.7416 28.7876 41.2239 29.7148C40.5064 29.9035 39.9472 29.7082 39.4183 29.2334C37.6522 27.6494 35.8663 26.0864 34.1069 24.4958C33.8074 24.2254 33.5463 24.1805 33.1704 24.2821C26.6812 26.0534 20.1893 27.8129 13.6987 29.579C13.4679 29.6423 13.2582 29.8085 13.0287 29.8362C12.4629 29.9035 11.8113 30.1132 11.3338 29.9206C7.93753 28.5542 4.57024 27.1112 1.2056 25.667C0.192641 25.2317 -0.201726 24.3388 0.0976761 23.2876C0.704394 21.1588 1.33617 19.0379 1.94289 16.9091C2.16975 16.1151 2.66568 15.6601 3.45968 15.4359C8.45192 14.0206 13.4376 12.5856 18.5617 11.1176L18.5604 11.1203ZM47.1737 17.1822C47.0748 17.0397 47.0576 16.9962 47.0247 16.9698C41.0775 12.029 35.1317 7.08822 29.1713 2.16325C28.992 2.01553 28.6504 1.95354 28.4143 2.00102C26.3963 2.4099 24.3875 2.87153 22.3682 3.27381C21.9606 3.35559 21.7681 3.52705 21.6454 3.89899C21.1534 5.39732 20.6417 6.88906 20.1352 8.38211C19.7342 9.56389 19.7501 9.54411 20.6812 10.3526C26.486 15.3937 32.2827 20.4439 38.0822 25.4916C38.4554 25.816 38.83 26.1378 39.2824 26.5283C39.7506 24.5604 40.207 22.7112 40.6106 20.8515C40.6502 20.6668 40.418 20.3503 40.2294 20.2012C36.146 16.9724 32.0519 13.7595 27.9592 10.5426C26.3883 9.30802 22.3062 6.10033 20.7446 4.85392C20.0719 4.3171 20.1814 3.57717 20.9464 3.26326C21.4555 3.05487 21.83 3.30019 22.2046 3.59564C27.6071 7.84662 35.5247 14.0642 40.9126 18.3336C41.4125 18.7293 41.8082 18.8348 42.4242 18.6264C43.9726 18.1015 45.5527 17.6689 47.1737 17.1822ZM32.0005 22.6453C29.7161 20.6563 27.5543 18.7662 25.3754 16.8973C25.2475 16.7878 24.9599 16.7799 24.7753 16.8313C21.0571 17.843 17.3456 18.8797 13.6248 19.8834C13.2147 19.9942 13.1738 20.1815 13.2147 20.5349C13.3531 21.7325 13.4639 22.9341 13.5919 24.1344C13.7093 25.241 13.8346 26.3462 13.9678 27.5452C19.9822 25.911 25.9122 24.2992 32.0005 22.6453ZM12.1081 28.2152C11.8298 25.4533 11.5712 22.8365 11.2877 20.2237C11.2692 20.0575 11.0806 19.828 10.9197 19.7713C8.57194 18.9377 6.21629 18.1278 3.80657 17.293C3.19194 19.402 2.59577 21.4608 1.98905 23.5158C1.86639 23.9312 2.16579 23.9945 2.42431 24.1053C4.26029 24.8862 6.09627 25.6643 7.93225 26.4438C9.28022 27.0163 10.6282 27.5887 12.1067 28.2165L12.1081 28.2152ZM40.9324 27.8353C44.4923 26.9081 47.8925 26.0231 51.335 25.1262C50.5647 22.9011 49.8235 20.7618 49.077 18.6053C47.0247 19.212 45.0502 19.7831 43.0889 20.3964C42.8805 20.4611 42.655 20.746 42.597 20.9689C42.1736 22.6004 41.7911 24.2412 41.3954 25.8806C41.249 26.49 41.1052 27.0994 40.9311 27.8353H40.9324ZM7.25695 16.3354C7.25167 16.3776 7.2464 16.4211 7.2398 16.4633C8.79089 17.0028 10.338 17.5541 11.897 18.0685C12.1859 18.1635 12.5446 18.1846 12.8361 18.1081C15.0203 17.5383 17.1966 16.9395 19.3728 16.3433C20.6931 15.9819 22.0094 15.606 23.4484 15.2037C22.5067 14.3939 21.6507 13.6803 20.825 12.9338C20.5071 12.6463 20.217 12.608 19.816 12.7254C17.3562 13.4482 14.8871 14.1446 12.4233 14.8516C10.7007 15.3449 8.97818 15.8408 7.25563 16.3354H7.25695Z" fill="#B88800"/>
<path d="M65.78 9.94V14.02H70.58V15.88H65.78V20.14H71.18V22H63.5V8.08H71.18V9.94H65.78ZM84.3483 12.1C83.9883 11.4067 83.4883 10.8867 82.8483 10.54C82.2083 10.18 81.4683 10 80.6283 10C79.7083 10 78.8883 10.2067 78.1683 10.62C77.4483 11.0333 76.8816 11.62 76.4683 12.38C76.0683 13.14 75.8683 14.02 75.8683 15.02C75.8683 16.02 76.0683 16.9067 76.4683 17.68C76.8816 18.44 77.4483 19.0267 78.1683 19.44C78.8883 19.8533 79.7083 20.06 80.6283 20.06C81.8683 20.06 82.8749 19.7133 83.6483 19.02C84.4216 18.3267 84.8949 17.3867 85.0683 16.2H79.8483V14.38H87.5083V16.16C87.3616 17.24 86.9749 18.2333 86.3483 19.14C85.7349 20.0467 84.9283 20.7733 83.9283 21.32C82.9416 21.8533 81.8416 22.12 80.6283 22.12C79.3216 22.12 78.1283 21.82 77.0483 21.22C75.9683 20.6067 75.1083 19.76 74.4683 18.68C73.8416 17.6 73.5283 16.38 73.5283 15.02C73.5283 13.66 73.8416 12.44 74.4683 11.36C75.1083 10.28 75.9683 9.44 77.0483 8.84C78.1416 8.22667 79.3349 7.92 80.6283 7.92C82.1083 7.92 83.4216 8.28667 84.5683 9.02C85.7283 9.74 86.5683 10.7667 87.0883 12.1H84.3483ZM96.397 22.14C95.1037 22.14 93.9104 21.84 92.817 21.24C91.737 20.6267 90.877 19.78 90.237 18.7C89.6104 17.6067 89.297 16.38 89.297 15.02C89.297 13.66 89.6104 12.44 90.237 11.36C90.877 10.28 91.737 9.44 92.817 8.84C93.9104 8.22667 95.1037 7.92 96.397 7.92C97.7037 7.92 98.897 8.22667 99.977 8.84C101.07 9.44 101.93 10.28 102.557 11.36C103.184 12.44 103.497 13.66 103.497 15.02C103.497 16.38 103.184 17.6067 102.557 18.7C101.93 19.78 101.07 20.6267 99.977 21.24C98.897 21.84 97.7037 22.14 96.397 22.14ZM96.397 20.16C97.317 20.16 98.137 19.9533 98.857 19.54C99.577 19.1133 100.137 18.5133 100.537 17.74C100.95 16.9533 101.157 16.0467 101.157 15.02C101.157 13.9933 100.95 13.0933 100.537 12.32C100.137 11.5467 99.577 10.9533 98.857 10.54C98.137 10.1267 97.317 9.92 96.397 9.92C95.477 9.92 94.657 10.1267 93.937 10.54C93.217 10.9533 92.6504 11.5467 92.237 12.32C91.837 13.0933 91.637 13.9933 91.637 15.02C91.637 16.0467 91.837 16.9533 92.237 17.74C92.6504 18.5133 93.217 19.1133 93.937 19.54C94.657 19.9533 95.477 20.16 96.397 20.16ZM108.321 20.16H113.021V22H106.041V8.1H108.321V20.16ZM119.767 8.1C121.247 8.1 122.541 8.38667 123.647 8.96C124.767 9.52 125.627 10.3333 126.227 11.4C126.841 12.4533 127.147 13.6867 127.147 15.1C127.147 16.5133 126.841 17.74 126.227 18.78C125.627 19.82 124.767 20.62 123.647 21.18C122.541 21.7267 121.247 22 119.767 22H115.227V8.1H119.767ZM119.767 20.14C121.394 20.14 122.641 19.7 123.507 18.82C124.374 17.94 124.807 16.7 124.807 15.1C124.807 13.4867 124.374 12.2267 123.507 11.32C122.641 10.4133 121.394 9.96 119.767 9.96H117.507V20.14H119.767ZM139.782 22.14C138.849 22.14 138.009 21.98 137.262 21.66C136.516 21.3267 135.929 20.86 135.502 20.26C135.076 19.66 134.862 18.96 134.862 18.16H137.302C137.356 18.76 137.589 19.2533 138.002 19.64C138.429 20.0267 139.022 20.22 139.782 20.22C140.569 20.22 141.182 20.0333 141.622 19.66C142.062 19.2733 142.282 18.78 142.282 18.18C142.282 17.7133 142.142 17.3333 141.862 17.04C141.596 16.7467 141.256 16.52 140.842 16.36C140.442 16.2 139.882 16.0267 139.162 15.84C138.256 15.6 137.516 15.36 136.942 15.12C136.382 14.8667 135.902 14.48 135.502 13.96C135.102 13.44 134.902 12.7467 134.902 11.88C134.902 11.08 135.102 10.38 135.502 9.78C135.902 9.18 136.462 8.72 137.182 8.4C137.902 8.08 138.736 7.92 139.682 7.92C141.029 7.92 142.129 8.26 142.982 8.94C143.849 9.60667 144.329 10.5267 144.422 11.7H141.902C141.862 11.1933 141.622 10.76 141.182 10.4C140.742 10.04 140.162 9.86 139.442 9.86C138.789 9.86 138.256 10.0267 137.842 10.36C137.429 10.6933 137.222 11.1733 137.222 11.8C137.222 12.2267 137.349 12.58 137.602 12.86C137.869 13.1267 138.202 13.34 138.602 13.5C139.002 13.66 139.549 13.8333 140.242 14.02C141.162 14.2733 141.909 14.5267 142.482 14.78C143.069 15.0333 143.562 15.4267 143.962 15.96C144.376 16.48 144.582 17.18 144.582 18.06C144.582 18.7667 144.389 19.4333 144.002 20.06C143.629 20.6867 143.076 21.1933 142.342 21.58C141.622 21.9533 140.769 22.14 139.782 22.14ZM158.673 8.1V22H156.393V15.92H149.853V22H147.573V8.1H149.853V14.06H156.393V8.1H158.673ZM168.314 22.14C167.021 22.14 165.828 21.84 164.734 21.24C163.654 20.6267 162.794 19.78 162.154 18.7C161.528 17.6067 161.214 16.38 161.214 15.02C161.214 13.66 161.528 12.44 162.154 11.36C162.794 10.28 163.654 9.44 164.734 8.84C165.828 8.22667 167.021 7.92 168.314 7.92C169.621 7.92 170.814 8.22667 171.894 8.84C172.988 9.44 173.848 10.28 174.474 11.36C175.101 12.44 175.414 13.66 175.414 15.02C175.414 16.38 175.101 17.6067 174.474 18.7C173.848 19.78 172.988 20.6267 171.894 21.24C170.814 21.84 169.621 22.14 168.314 22.14ZM168.314 20.16C169.234 20.16 170.054 19.9533 170.774 19.54C171.494 19.1133 172.054 18.5133 172.454 17.74C172.868 16.9533 173.074 16.0467 173.074 15.02C173.074 13.9933 172.868 13.0933 172.454 12.32C172.054 11.5467 171.494 10.9533 170.774 10.54C170.054 10.1267 169.234 9.92 168.314 9.92C167.394 9.92 166.574 10.1267 165.854 10.54C165.134 10.9533 164.568 11.5467 164.154 12.32C163.754 13.0933 163.554 13.9933 163.554 15.02C163.554 16.0467 163.754 16.9533 164.154 17.74C164.568 18.5133 165.134 19.1133 165.854 19.54C166.574 19.9533 167.394 20.16 168.314 20.16ZM187.678 12.24C187.678 12.9467 187.511 13.6133 187.178 14.24C186.844 14.8667 186.311 15.38 185.578 15.78C184.844 16.1667 183.904 16.36 182.758 16.36H180.238V22H177.958V8.1H182.758C183.824 8.1 184.724 8.28667 185.458 8.66C186.204 9.02 186.758 9.51333 187.118 10.14C187.491 10.7667 187.678 11.4667 187.678 12.24ZM182.758 14.5C183.624 14.5 184.271 14.3067 184.698 13.92C185.124 13.52 185.338 12.96 185.338 12.24C185.338 10.72 184.478 9.96 182.758 9.96H180.238V14.5H182.758Z" fill="#253237"/>
</svg>
