<svg width="156" height="30" viewBox="0 0 156 30" fill="none" xmlns="http://www.w3.org/2000/svg">
<path d="M37.14 22.2C36.3133 22.2 35.54 22.14 34.82 22.02C34.1133 21.9 33.5 21.7267 32.98 21.5V19.12C33.5667 19.36 34.2 19.5533 34.88 19.7C35.56 19.8467 36.2267 19.92 36.88 19.92C37.8133 19.92 38.5 19.8333 38.94 19.66C39.38 19.4867 39.6 19.0933 39.6 18.48C39.6 18.0933 39.5067 17.7867 39.32 17.56C39.1333 17.3333 38.8067 17.1333 38.34 16.96C37.8867 16.7733 37.24 16.5667 36.4 16.34C35.0533 15.9667 34.1067 15.5 33.56 14.94C33.0133 14.38 32.74 13.6067 32.74 12.62C32.74 11.4333 33.1733 10.52 34.04 9.88C34.9067 9.24 36.1667 8.92 37.82 8.92C38.5933 8.92 39.3133 8.97333 39.98 9.08C40.6467 9.18667 41.1867 9.31333 41.6 9.46V11.84C40.5067 11.4267 39.3667 11.22 38.18 11.22C37.34 11.22 36.68 11.3133 36.2 11.5C35.72 11.6733 35.48 12.0467 35.48 12.62C35.48 12.9533 35.5667 13.22 35.74 13.42C35.9133 13.62 36.2067 13.8 36.62 13.96C37.0467 14.12 37.64 14.3 38.4 14.5C39.4533 14.78 40.2667 15.1133 40.84 15.5C41.4133 15.8867 41.8067 16.3267 42.02 16.82C42.2467 17.3133 42.36 17.8667 42.36 18.48C42.36 19.6 41.9333 20.5 41.08 21.18C40.2267 21.86 38.9133 22.2 37.14 22.2ZM46.7883 22V11.2H42.8283V9.12H53.4283V11.2H49.4883V22H46.7883ZM52.8181 22L57.7381 9.12H60.6981L65.5981 22H62.7981L61.5781 18.9H56.8381L55.6381 22H52.8181ZM57.2381 16.82H61.1781L59.1981 11.64L57.2381 16.82ZM67.4759 22V9.12H73.9959C75.2893 9.12 76.2493 9.42667 76.8759 10.04C77.5159 10.64 77.8359 11.4933 77.8359 12.6C77.8359 13.2933 77.7026 13.8733 77.4359 14.34C77.1693 14.7933 76.8093 15.1467 76.3559 15.4C76.9559 15.5867 77.4293 15.9 77.7759 16.34C78.1359 16.7667 78.3159 17.4 78.3159 18.24C78.3159 19.48 77.9626 20.42 77.2559 21.06C76.5626 21.6867 75.5559 22 74.2359 22H67.4759ZM70.1759 14.46H73.4959C74.1493 14.46 74.6159 14.32 74.8959 14.04C75.1759 13.7467 75.3159 13.34 75.3159 12.82C75.3159 12.2467 75.1693 11.82 74.8759 11.54C74.5959 11.26 74.0693 11.12 73.2959 11.12H70.1759V14.46ZM70.1759 20.02H73.5959C74.2759 20.02 74.7759 19.88 75.0959 19.6C75.4159 19.32 75.5759 18.8267 75.5759 18.12C75.5759 17.5467 75.4159 17.12 75.0959 16.84C74.7893 16.56 74.2293 16.42 73.4159 16.42H70.1759V20.02ZM80.1908 22V9.12H82.8908V19.92H89.2308V22H80.1908ZM90.7181 22V9.12H99.9581V11.22H93.4181V14.52H99.2181V16.6H93.4181V19.92H99.9581V22H90.7181ZM106.226 22V9.12H115.286V11.22H108.926V14.52H114.546V16.6H108.926V22H106.226ZM114.771 22L119.691 9.12H122.651L127.551 22H124.751L123.531 18.9H118.791L117.591 22H114.771ZM119.191 16.82H123.131L121.151 11.64L119.191 16.82ZM129.429 22V9.12H135.609C137.089 9.12 138.176 9.51333 138.869 10.3C139.562 11.0733 139.909 12.12 139.909 13.44C139.909 14.3067 139.682 15.0533 139.229 15.68C138.789 16.3067 138.162 16.76 137.349 17.04C137.562 17.2133 137.729 17.4 137.849 17.6C137.982 17.8 138.116 18.0667 138.249 18.4L139.809 22H137.009L135.489 18.54C135.356 18.2467 135.209 18.04 135.049 17.92C134.889 17.8 134.622 17.74 134.249 17.74H132.129V22H129.429ZM132.129 15.5H134.909C135.616 15.5 136.169 15.3467 136.569 15.04C136.969 14.72 137.169 14.1867 137.169 13.44C137.169 12.72 136.996 12.1933 136.649 11.86C136.302 11.5267 135.776 11.36 135.069 11.36H132.129V15.5ZM141.792 22V9.12H144.512L148.292 16.86L152.072 9.12H154.772V22H152.072V13.62L149.072 19.78H147.512L144.492 13.62V22H141.792Z" fill="#2C3356"/>
<g clip-path="url(#clip0_2490_65562)">
<path d="M15.3676 13.7798C13.6326 8.07172 7.32111 5.04321 1.98534 2.46147C-0.0858853 1.64075 0.54135 1.84837 0.416637 3.62352C0.273583 6.8401 -0.0809944 10.0425 0.01682 13.2558C0.218562 16.8844 0.496111 21.2391 3.84137 23.7567C4.93933 24.7198 7.39692 25.6732 8.4472 24.2035C9.72979 21.3663 8.46065 18.2019 7.43605 15.4843C7.22208 16.155 6.41266 18.1313 5.76586 16.6474C5.30125 14.844 5.05426 12.9265 4.1507 11.2024C3.75822 10.4045 3.25937 9.58924 2.77886 8.79461C2.46829 8.4424 2.81676 7.18143 3.42199 7.89562C5.10806 9.39466 5.7353 11.7351 6.46035 13.7189C7.74538 11.272 9.25539 16.5692 9.54884 17.466C10.0807 19.6781 10.7801 22.2338 9.83495 24.4883C10.928 24.6992 10.9537 22.3164 10.884 21.4968C9.54639 11.0274 16.2589 16.3692 15.3676 13.7798ZM5.525 6.84444C5.53111 6.8477 5.536 6.84879 5.54211 6.84988C5.5519 6.8564 5.5629 6.86292 5.57146 6.86945C5.55556 6.86075 5.54089 6.85205 5.525 6.84444ZM6.56305 5.8911V5.88893C6.56305 5.88893 6.56672 5.89219 6.56917 5.89328C6.56672 5.89219 6.5655 5.89219 6.56305 5.8911ZM8.22957 8.40109C8.2528 8.40436 8.28581 8.42066 8.30048 8.44784C8.27725 8.43153 8.2528 8.41631 8.22957 8.40109Z" fill="#2C3356"/>
<path d="M23.9996 13.8833C21.476 17.4912 23.6108 30.5118 15.5655 25.9886C14.2989 25.2864 15.6108 23.5265 15.9189 22.496C16.485 21.4111 17.539 20.6469 18.61 20.0099C19.0306 19.9284 19.5588 19.7881 19.5026 19.3229C17.3164 16.9912 14.1375 22.2557 13.9186 24.0167C12.1017 22.9569 12.7167 25.0212 13.4197 25.8702C11.4977 28.8769 12.9111 28.4867 10.3594 26.0408C15.1523 24.1809 7.81253 14.2877 16.644 15.9345C17.9669 14.9812 19.6481 14.4072 21.4466 14.0072C22.003 13.992 23.8309 13.5333 23.9996 13.8833Z" fill="#2C3356"/>
</g>
<defs>
<clipPath id="clip0_2490_65562">
<rect width="24" height="26" fill="white" transform="translate(0 2)"/>
</clipPath>
</defs>
</svg>
