<svg width="35" height="36" viewBox="0 0 35 36" fill="none" xmlns="http://www.w3.org/2000/svg">
<circle cx="17.5" cy="18" r="17" stroke="#5DD2C7"/>
<g clip-path="url(#clip0_2437_66701)">
<path d="M20.75 18.5C18.958 18.5 17.5 17.042 17.5 15.25C17.5 13.458 18.958 12 20.75 12C22.542 12 24 13.458 24 15.25C24 17.042 22.542 18.5 20.75 18.5ZM20.75 12.5C19.234 12.5 18 13.7335 18 15.25C18 16.7665 19.234 18 20.75 18C22.266 18 23.5 16.7665 23.5 15.25C23.5 13.7335 22.266 12.5 20.75 12.5Z" fill="#5DD2C7"/>
<path d="M20.2498 16.4989C20.1835 16.4988 20.1199 16.4726 20.0728 16.4259L19.0728 15.4259C19.0273 15.3788 19.0021 15.3156 19.0027 15.2501C19.0033 15.1845 19.0295 15.1218 19.0759 15.0755C19.1222 15.0291 19.1849 15.0028 19.2505 15.0023C19.316 15.0017 19.3792 15.0269 19.4263 15.0724L20.2373 15.8834L21.8113 14.0844C21.8553 14.0357 21.9168 14.0062 21.9823 14.0024C22.0479 13.9985 22.1123 14.0207 22.1617 14.0639C22.2111 14.1072 22.2415 14.1682 22.2463 14.2337C22.2511 14.2992 22.2299 14.3639 22.1873 14.4139L20.4373 16.4139C20.415 16.4397 20.3875 16.4605 20.3567 16.4751C20.3259 16.4897 20.2924 16.4978 20.2583 16.4989H20.2498ZM21.7498 20.4989H15.2498C15.1921 20.4989 15.1361 20.4789 15.0914 20.4422C15.0468 20.4056 15.0162 20.3546 15.0048 20.2979L14.0048 15.2979C13.9976 15.2617 13.9985 15.2243 14.0074 15.1884C14.0164 15.1525 14.0332 15.1191 14.0566 15.0905C14.0801 15.0619 14.1095 15.0389 14.143 15.023C14.1764 15.0072 14.2129 14.999 14.2498 14.9989H16.2498C16.3162 14.9989 16.3797 15.0253 16.4266 15.0722C16.4735 15.1191 16.4998 15.1826 16.4998 15.2489C16.4998 15.3153 16.4735 15.3788 16.4266 15.4257C16.3797 15.4726 16.3162 15.4989 16.2498 15.4989H14.5548L15.4548 19.9989H21.5448L21.6833 19.3064C21.6963 19.2414 21.7346 19.1842 21.7898 19.1474C21.845 19.1106 21.9126 19.0972 21.9776 19.1102C22.0426 19.1232 22.0999 19.1615 22.1367 19.2167C22.1735 19.2719 22.1868 19.3394 22.1738 19.4044L21.9953 20.2979C21.9838 20.3546 21.9531 20.4055 21.9084 20.4422C21.8637 20.4788 21.8077 20.4988 21.7498 20.4989Z" fill="#5DD2C7"/>
<path d="M15.2493 20.499C15.1916 20.4989 15.1357 20.4788 15.0912 20.4422C15.0466 20.4055 15.0161 20.3546 15.0048 20.298L13.7653 14.101C13.7309 13.9312 13.639 13.7784 13.5049 13.6685C13.3709 13.5586 13.2031 13.4984 13.0298 13.498L12.2503 13.499C12.184 13.4991 12.1198 13.4728 12.0729 13.426C12.026 13.3792 11.9996 13.3156 11.9995 13.2493C11.9994 13.183 12.0257 13.1194 12.0726 13.0724C12.1194 13.0255 12.183 12.9991 12.2493 12.999L13.0283 12.998H13.0298C13.6238 12.998 14.1393 13.4205 14.2558 14.003L15.4948 20.2C15.5022 20.2364 15.5014 20.2739 15.4925 20.3099C15.4836 20.3459 15.4668 20.3794 15.4433 20.4081C15.4198 20.4367 15.3901 20.4598 15.3566 20.4755C15.323 20.4912 15.2863 20.4993 15.2493 20.499Z" fill="#5DD2C7"/>
<path d="M22.75 21.5H14.25C13.8365 21.5 13.5 21.1635 13.5 20.75C13.5 20.3365 13.8365 20 14.25 20H15.25C15.3163 20 15.3799 20.0263 15.4268 20.0732C15.4737 20.1201 15.5 20.1837 15.5 20.25C15.5 20.3163 15.4737 20.3799 15.4268 20.4268C15.3799 20.4737 15.3163 20.5 15.25 20.5H14.25C14.1837 20.5 14.1201 20.5263 14.0732 20.5732C14.0263 20.6201 14 20.6837 14 20.75C14 20.8163 14.0263 20.8799 14.0732 20.9268C14.1201 20.9737 14.1837 21 14.25 21H22.75C22.8163 21 22.8799 21.0263 22.9268 21.0732C22.9737 21.1201 23 21.1837 23 21.25C23 21.3163 22.9737 21.3799 22.9268 21.4268C22.8799 21.4737 22.8163 21.5 22.75 21.5ZM16 24C15.4485 24 15 23.5515 15 23C15 22.4485 15.4485 22 16 22C16.5515 22 17 22.4485 17 23C17 23.5515 16.5515 24 16 24ZM16 22.5C15.8713 22.5058 15.7497 22.561 15.6606 22.6541C15.5716 22.7472 15.5219 22.8711 15.5219 23C15.5219 23.1289 15.5716 23.2528 15.6606 23.3459C15.7497 23.439 15.8713 23.4942 16 23.5C16.1287 23.4942 16.2503 23.439 16.3394 23.3459C16.4284 23.2528 16.4781 23.1289 16.4781 23C16.4781 22.8711 16.4284 22.7472 16.3394 22.6541C16.2503 22.561 16.1287 22.5058 16 22.5ZM20.5 24C19.9485 24 19.5 23.5515 19.5 23C19.5 22.4485 19.9485 22 20.5 22C21.0515 22 21.5 22.4485 21.5 23C21.5 23.5515 21.0515 24 20.5 24ZM20.5 22.5C20.3713 22.5058 20.2497 22.561 20.1606 22.6541C20.0716 22.7472 20.0219 22.8711 20.0219 23C20.0219 23.1289 20.0716 23.2528 20.1606 23.3459C20.2497 23.439 20.3713 23.4942 20.5 23.5C20.6287 23.4942 20.7503 23.439 20.8394 23.3459C20.9284 23.2528 20.9781 23.1289 20.9781 23C20.9781 22.8711 20.9284 22.7472 20.8394 22.6541C20.7503 22.561 20.6287 22.5058 20.5 22.5Z" fill="#5DD2C7"/>
</g>
<defs>
<clipPath id="clip0_2437_66701">
<rect width="12" height="12" fill="white" transform="translate(12 12)"/>
</clipPath>
</defs>
</svg>
