<svg width="23" height="21" viewBox="0 0 23 21" fill="none" xmlns="http://www.w3.org/2000/svg">
<path d="M4.44644 4.65641H18.5089C18.6732 4.65634 18.8373 4.66574 19.0002 4.68453C18.945 4.3351 18.8118 3.99937 18.6088 3.69758C18.4057 3.39579 18.1369 3.13419 17.8186 2.92855C17.5003 2.72292 17.1391 2.57751 16.7568 2.50109C16.3745 2.42467 15.9789 2.41883 15.594 2.48391L4.02895 4.2635H4.01577C3.28983 4.38862 2.64427 4.75881 2.21094 5.29846C2.86379 4.87993 3.64529 4.65548 4.44644 4.65641V4.65641Z" fill="white"/>
<path d="M18.5093 5.60876H4.44678C3.70111 5.6095 2.98621 5.8768 2.45894 6.35203C1.93167 6.82726 1.63509 7.4716 1.63428 8.14368V15.7484C1.63509 16.4205 1.93167 17.0648 2.45894 17.5401C2.98621 18.0153 3.70111 18.2826 4.44678 18.2833H18.5093C19.2549 18.2826 19.9698 18.0153 20.4971 17.5401C21.0244 17.0648 21.321 16.4205 21.3218 15.7484V8.14368C21.321 7.4716 21.0244 6.82726 20.4971 6.35203C19.9698 5.8768 19.2549 5.6095 18.5093 5.60876V5.60876ZM16.4219 13.2135C16.1437 13.2135 15.8719 13.1392 15.6406 12.9999C15.4093 12.8606 15.2291 12.6627 15.1227 12.4311C15.0162 12.1995 14.9884 11.9446 15.0426 11.6988C15.0969 11.4529 15.2308 11.2271 15.4275 11.0498C15.6242 10.8726 15.8747 10.7519 16.1475 10.7029C16.4203 10.654 16.7031 10.6791 16.96 10.7751C17.217 10.871 17.4366 11.0335 17.5911 11.2419C17.7456 11.4503 17.8281 11.6954 17.8281 11.9461C17.8281 12.2822 17.68 12.6046 17.4162 12.8423C17.1525 13.08 16.7948 13.2135 16.4219 13.2135Z" fill="white"/>
<path d="M1.65625 10.8151V6.87415C1.65625 6.01584 2.18359 4.57688 4.01392 4.26516C5.56738 4.00256 7.10547 4.00256 7.10547 4.00256C7.10547 4.00256 8.11621 4.63629 7.28125 4.63629C6.44629 4.63629 6.46826 5.60669 7.28125 5.60669C8.09424 5.60669 7.28125 6.53748 7.28125 6.53748L4.00732 9.88436L1.65625 10.8151Z" fill="white"/>
</svg>
