<svg width="28" height="28" viewBox="0 0 28 28" fill="none" xmlns="http://www.w3.org/2000/svg">
<g clip-path="url(#clip0_4022_41018)">
<path fill-rule="evenodd" clip-rule="evenodd" d="M14 0C21.7325 0 28 6.26747 28 14C28 21.7325 21.7325 28 14 28C6.26747 28 0 21.7325 0 14C0 6.26747 6.26747 0 14 0Z" fill="#F0B90B"/>
<path d="M7.69517 14.0001L7.70527 17.702L10.8508 19.553V21.7203L5.8644 18.7958V12.9176L7.69517 14.0001ZM7.69517 10.2982V12.4554L5.86328 11.3717V9.21451L7.69517 8.13086L9.53604 9.21451L7.69517 10.2982ZM12.1644 9.21451L13.9963 8.13086L15.8372 9.21451L13.9963 10.2982L12.1644 9.21451Z" fill="white"/>
<path d="M9.01758 16.9347V14.7674L10.8495 15.8511V18.0083L9.01758 16.9347ZM12.1631 20.3293L13.995 21.4129L15.8358 20.3293V22.4865L13.995 23.5701L12.1631 22.4865V20.3293ZM18.4631 9.21451L20.295 8.13086L22.1358 9.21451V11.3717L20.295 12.4554V10.2982L18.4631 9.21451ZM20.295 17.702L20.3051 14.0001L22.137 12.9164V18.7946L17.1506 21.7192V19.5519L20.295 17.702Z" fill="white"/>
<path d="M18.9823 16.9344L17.1504 18.008V15.8507L18.9823 14.7671V16.9344Z" fill="white"/>
<path d="M18.9814 11.0656L18.9915 13.2329L15.837 15.0839V18.7948L14.0051 19.8683L12.1732 18.7948V15.0839L9.0187 13.2329V11.0656L10.8584 9.98194L13.9939 11.8419L17.1483 9.98194L18.9892 11.0656H18.9814ZM9.01758 7.36479L13.995 4.43018L18.9814 7.36479L17.1495 8.44844L13.995 6.58851L10.8495 8.44844L9.01758 7.36479Z" fill="white"/>
</g>
<defs>
<clipPath id="clip0_4022_41018">
<rect width="28" height="28" fill="white"/>
</clipPath>
</defs>
</svg>
