<svg width="60" height="60" viewBox="0 0 60 60" fill="none" xmlns="http://www.w3.org/2000/svg">
<g clip-path="url(#clip0_4732_7040)">
<path d="M30.0032 60.0064C46.5735 60.0064 60.0064 46.5735 60.0064 30.0032C60.0064 13.4329 46.5735 0 30.0032 0C13.4329 0 0 13.4329 0 30.0032C0 46.5735 13.4329 60.0064 30.0032 60.0064Z" fill="#FCB017"/>
<path d="M16.6309 43.0754L36.2155 22.7971L32.2395 18.0246L35.8172 14.9414L40.0052 18.8853C42.3497 18.8725 42.5745 20.5875 42.5103 21.2427L44.3666 22.9962L47.5462 29.6572L40.487 26.3749L38.5985 24.6855L19.6113 45.8567C18.0761 45.664 17.0933 44.7262 16.6309 43.0754Z" fill="white"/>
<path d="M43.4673 42.9723L22.7907 22.4948L28.0578 17.9214L24.7755 14.1445L17.5172 19.6108L12.4492 26.3681L16.027 29.7467L20.4013 24.1777L40.3777 45.2525C41.9835 45.3232 43.0241 44.5781 43.4609 42.9659L43.4673 42.9723Z" fill="white"/>
<g clip-path="url(#clip1_4732_7040)">
<path d="M30.0032 60.0064C46.5735 60.0064 60.0064 46.5735 60.0064 30.0032C60.0064 13.4329 46.5735 0 30.0032 0C13.4329 0 0 13.4329 0 30.0032C0 46.5735 13.4329 60.0064 30.0032 60.0064Z" fill="#FCB017"/>
<path d="M16.6309 43.0754L36.2155 22.7971L32.2395 18.0246L35.8172 14.9414L40.0052 18.8853C42.3497 18.8725 42.5745 20.5875 42.5103 21.2427L44.3666 22.9962L47.5462 29.6572L40.487 26.3749L38.5985 24.6855L19.6113 45.8567C18.0761 45.664 17.0933 44.7262 16.6309 43.0754Z" fill="white"/>
<path d="M43.4673 42.9723L22.7907 22.4948L28.0578 17.9214L24.7755 14.1445L17.5172 19.6108L12.4492 26.3681L16.027 29.7467L20.4013 24.1777L40.3777 45.2525C41.9835 45.3232 43.0241 44.5781 43.4609 42.9659L43.4673 42.9723Z" fill="white"/>
</g>
</g>
<defs>
<clipPath id="clip0_4732_7040">
<rect width="60" height="60" fill="white"/>
</clipPath>
<clipPath id="clip1_4732_7040">
<rect width="60" height="60" fill="white"/>
</clipPath>
</defs>
</svg>
