<svg width="28" height="28" viewBox="0 0 28 28" fill="none" xmlns="http://www.w3.org/2000/svg">
<g clip-path="url(#clip0_4022_45469)">
<path d="M14.0006 27.5476C21.4827 27.5476 27.5481 21.4822 27.5481 14.0001C27.5481 6.51806 21.4827 0.452637 14.0006 0.452637C6.51855 0.452637 0.453125 6.51806 0.453125 14.0001C0.453125 21.4822 6.51855 27.5476 14.0006 27.5476Z" fill="#FFC727"/>
<g clip-path="url(#clip1_4022_45469)">
<path d="M10.9463 12.032C10.6019 11.677 10.6517 11.3201 10.7939 10.9324C11.0358 10.2738 11.251 9.60557 11.4722 8.93988C11.5798 8.61559 11.797 8.42604 12.1293 8.35515C12.9715 8.17666 13.8127 7.99465 14.6538 7.81315C14.9681 7.74527 15.2215 7.85437 15.4608 8.05448C16.578 8.98966 17.7007 9.9188 18.8214 10.8495C20.1226 11.9299 21.4077 13.03 22.7355 14.0768C23.084 14.3518 23.2806 14.654 23.4098 15.0517C23.634 15.743 23.8824 16.4263 24.1172 17.1141C24.2816 17.5963 24.1066 17.9412 23.6114 18.0719C22.271 18.4259 20.9265 18.7668 19.5856 19.1202C19.3121 19.1921 19.0989 19.1177 18.8973 18.9367C18.2241 18.3329 17.5433 17.7371 16.8726 17.1307C16.7585 17.0277 16.6589 17.0106 16.5156 17.0493C14.0419 17.7245 11.5672 18.3952 9.09303 19.0685C9.00504 19.0926 8.9251 19.1559 8.83762 19.1665C8.62192 19.1921 8.37355 19.2721 8.19154 19.1987C6.89687 18.6778 5.61327 18.1277 4.33067 17.5772C3.94453 17.4113 3.7942 17.0709 3.90833 16.6702C4.13961 15.8587 4.38044 15.0502 4.61172 14.2387C4.6982 13.936 4.88725 13.7626 5.18992 13.6771C7.09296 13.1376 8.99348 12.5906 10.9468 12.031L10.9463 12.032ZM21.8537 14.3428C21.816 14.2885 21.8094 14.2719 21.7969 14.2618C19.5298 12.3784 17.2633 10.495 14.9912 8.6176C14.9228 8.56129 14.7926 8.53766 14.7026 8.55576C13.9333 8.71162 13.1676 8.88759 12.3978 9.04094C12.2425 9.07211 12.1691 9.13748 12.1223 9.27926C11.9348 9.85042 11.7397 10.4191 11.5466 10.9882C11.3938 11.4387 11.3998 11.4312 11.7548 11.7394C13.9675 13.661 16.1772 15.5862 18.388 17.5103C18.5303 17.634 18.6731 17.7567 18.8455 17.9055C19.024 17.1554 19.198 16.4505 19.3518 15.7415C19.3669 15.6711 19.2784 15.5505 19.2065 15.4937C17.6499 14.2628 16.0893 13.0381 14.5291 11.8118C13.9303 11.3412 12.3742 10.1184 11.7789 9.64328C11.5225 9.43864 11.5642 9.15658 11.8558 9.03692C12.0499 8.95748 12.1927 9.051 12.3355 9.16362C14.3949 10.7841 17.4131 13.1542 19.467 14.7817C19.6575 14.9326 19.8083 14.9728 20.0431 14.8933C20.6334 14.6932 21.2357 14.5283 21.8537 14.3428ZM16.0696 16.4253C15.1988 15.6671 14.3748 14.9466 13.5442 14.2342C13.4954 14.1925 13.3858 14.1894 13.3154 14.2091C11.8981 14.5947 10.4832 14.9899 9.06487 15.3725C8.90851 15.4147 8.89292 15.4861 8.90851 15.6209C8.9613 16.0774 9.00353 16.5354 9.0523 16.993C9.09705 17.4148 9.14482 17.8361 9.1956 18.2932C11.4883 17.6702 13.7488 17.0558 16.0696 16.4253ZM8.48667 18.5486C8.38058 17.4957 8.28204 16.4982 8.17394 15.5022C8.1669 15.4389 8.095 15.3514 8.03366 15.3298C7.13871 15.012 6.24074 14.7033 5.32215 14.385C5.08786 15.189 4.8606 15.9738 4.62932 16.7572C4.58256 16.9155 4.69669 16.9397 4.79524 16.9819C5.49511 17.2795 6.19499 17.5762 6.89486 17.8733C7.4087 18.0915 7.92255 18.3098 8.48617 18.5491L8.48667 18.5486ZM19.4745 18.4038C20.8315 18.0503 22.1277 17.7129 23.4399 17.3711C23.1463 16.5229 22.8638 15.7073 22.5792 14.8853C21.7969 15.1166 21.0442 15.3343 20.2965 15.5681C20.2171 15.5927 20.1311 15.7013 20.109 15.7863C19.9476 16.4082 19.8018 17.0337 19.651 17.6586C19.5952 17.8909 19.5404 18.1232 19.474 18.4038H19.4745ZM6.63744 14.0205C6.63542 14.0366 6.63341 14.0532 6.6309 14.0693C7.22217 14.2749 7.81194 14.4851 8.40623 14.6812C8.51634 14.7174 8.65309 14.7254 8.76421 14.6962C9.59682 14.479 10.4264 14.2508 11.256 14.0235C11.7593 13.8858 12.2611 13.7425 12.8096 13.5891C12.4506 13.2804 12.1243 13.0084 11.8096 12.7238C11.6884 12.6142 11.5778 12.5996 11.4249 12.6444C10.4872 12.9199 9.54604 13.1854 8.60684 13.4549C7.9502 13.6429 7.29357 13.832 6.63693 14.0205H6.63744Z" fill="white"/>
</g>
</g>
<defs>
<clipPath id="clip0_4022_45469">
<rect width="28" height="28" fill="white"/>
</clipPath>
<clipPath id="clip1_4022_45469">
<rect width="20.3069" height="11.4368" fill="white" transform="translate(3.87109 7.79297)"/>
</clipPath>
</defs>
</svg>
